<?xml version="1.0" encoding="UTF-8" standalone="no"?>
<!DOCTYPE svg PUBLIC "-//W3C//DTD SVG 1.1//EN"
 "http://www.w3.org/Graphics/SVG/1.1/DTD/svg11.dtd">
<!-- Generated by graphviz version 2.40.1 (20161225.0304)
 -->
<!-- Title: state transitions Pages: 1 -->
<svg width="359pt" height="352pt"
 viewBox="0.00 0.00 358.80 352.00" xmlns="http://www.w3.org/2000/svg" xmlns:xlink="http://www.w3.org/1999/xlink">
<g id="graph0" class="graph" transform="scale(1 1) rotate(0) translate(4 348)">
<title>state transitions</title>
<polygon fill="#ffffff" stroke="transparent" points="-4,4 -4,-348 354.796,-348 354.796,4 -4,4"/>
<g id="clust1" class="cluster state regular">
<title>cluster_next_state</title>
<path fill="none" stroke="#000000" stroke-width="2" d="M20,-8C20,-8 293,-8 293,-8 299,-8 305,-14 305,-20 305,-20 305,-324 305,-324 305,-330 299,-336 293,-336 293,-336 20,-336 20,-336 14,-336 8,-330 8,-324 8,-324 8,-20 8,-20 8,-14 14,-8 20,-8"/>
<text text-anchor="start" x="129.3208" y="-317.2" font-family="Helvetica,sans-Serif" font-size="12.00" fill="#000000">next_state</text>
</g>
<!-- next_state -->
<!-- S0 -->
<g id="node2" class="node state regular">
<title>S0</title>
<polygon fill="#ffffff" fill-opacity="0.003922" stroke="transparent" stroke-width="2" points="176,-298 120,-298 120,-262 176,-262 176,-298"/>
<text text-anchor="start" x="140.6632" y="-276.2" font-family="Helvetica,sans-Serif" font-size="12.00" fill="#000000">S0</text>
<path fill="none" stroke="#000000" stroke-width="2" d="M132.3333,-263C132.3333,-263 163.6667,-263 163.6667,-263 169.3333,-263 175,-268.6667 175,-274.3333 175,-274.3333 175,-285.6667 175,-285.6667 175,-291.3333 169.3333,-297 163.6667,-297 163.6667,-297 132.3333,-297 132.3333,-297 126.6667,-297 121,-291.3333 121,-285.6667 121,-285.6667 121,-274.3333 121,-274.3333 121,-268.6667 126.6667,-263 132.3333,-263"/>
</g>
<!-- S0&#45;&gt;S0 -->
<g id="edge4" class="edge transition">
<title>S0&#45;&gt;S0</title>
<path fill="none" stroke="#000000" d="M176.0183,-284.8247C187.888,-285.1883 198,-283.5801 198,-280 198,-277.5387 193.2205,-276.0094 186.3762,-275.4121"/>
<polygon fill="#000000" stroke="#000000" points="186.0957,-271.9049 176.0183,-275.1753 185.9356,-278.903 186.0957,-271.9049"/>
<text text-anchor="start" x="198" y="-289" font-family="Helvetica,sans-Serif" font-size="10.00" fill="#000000">not (in == 2&#39;b01) &#160;&#160;</text>
<text text-anchor="start" x="198" y="-277" font-family="Helvetica,sans-Serif" font-size="10.00" fill="#000000">not (in == 2&#39;b10) &#160;&#160;</text>
<text text-anchor="start" x="198" y="-265" font-family="Helvetica,sans-Serif" font-size="10.00" fill="#000000">not (in == 2&#39;b11) &#160;&#160;</text>
</g>
<!-- S1 -->
<g id="node3" class="node state regular">
<title>S1</title>
<polygon fill="#ffffff" fill-opacity="0.003922" stroke="transparent" stroke-width="2" points="72,-216 16,-216 16,-180 72,-180 72,-216"/>
<text text-anchor="start" x="36.6632" y="-194.2" font-family="Helvetica,sans-Serif" font-size="12.00" fill="#000000">S1</text>
<path fill="none" stroke="#000000" stroke-width="2" d="M28.3333,-181C28.3333,-181 59.6667,-181 59.6667,-181 65.3333,-181 71,-186.6667 71,-192.3333 71,-192.3333 71,-203.6667 71,-203.6667 71,-209.3333 65.3333,-215 59.6667,-215 59.6667,-215 28.3333,-215 28.3333,-215 22.6667,-215 17,-209.3333 17,-203.6667 17,-203.6667 17,-192.3333 17,-192.3333 17,-186.6667 22.6667,-181 28.3333,-181"/>
</g>
<!-- S0&#45;&gt;S1 -->
<g id="edge1" class="edge transition">
<title>S0&#45;&gt;S1</title>
<path fill="none" stroke="#000000" d="M124.919,-261.8015C110.2427,-250.2298 91.06,-235.105 75.0554,-222.486"/>
<polygon fill="#000000" stroke="#000000" points="77.0362,-219.5907 67.0165,-216.1476 72.7021,-225.0876 77.0362,-219.5907"/>
<text text-anchor="start" x="102" y="-236" font-family="Helvetica,sans-Serif" font-size="10.00" fill="#000000">in == 2&#39;b01 &#160;&#160;</text>
</g>
<!-- S2 -->
<g id="node4" class="node state regular">
<title>S2</title>
<polygon fill="#ffffff" fill-opacity="0.003922" stroke="transparent" stroke-width="2" points="174,-134 118,-134 118,-98 174,-98 174,-134"/>
<text text-anchor="start" x="138.6632" y="-112.2" font-family="Helvetica,sans-Serif" font-size="12.00" fill="#000000">S2</text>
<path fill="none" stroke="#000000" stroke-width="2" d="M130.3333,-99C130.3333,-99 161.6667,-99 161.6667,-99 167.3333,-99 173,-104.6667 173,-110.3333 173,-110.3333 173,-121.6667 173,-121.6667 173,-127.3333 167.3333,-133 161.6667,-133 161.6667,-133 130.3333,-133 130.3333,-133 124.6667,-133 119,-127.3333 119,-121.6667 119,-121.6667 119,-110.3333 119,-110.3333 119,-104.6667 124.6667,-99 130.3333,-99"/>
</g>
<!-- S0&#45;&gt;S2 -->
<g id="edge2" class="edge transition">
<title>S0&#45;&gt;S2</title>
<path fill="none" stroke="#000000" d="M160.6816,-261.9409C168.5262,-249.6284 177.8634,-232.6036 182,-216 185.868,-200.4746 186.0544,-195.4778 182,-180 178.5929,-166.9934 171.8828,-153.8409 165.1695,-142.8705"/>
<polygon fill="#000000" stroke="#000000" points="167.9571,-140.7345 159.6021,-134.2196 162.0707,-144.5228 167.9571,-140.7345"/>
<text text-anchor="start" x="184" y="-195" font-family="Helvetica,sans-Serif" font-size="10.00" fill="#000000">in == 2&#39;b10 &#160;&#160;</text>
</g>
<!-- S3 -->
<g id="node5" class="node state regular">
<title>S3</title>
<polygon fill="#ffffff" fill-opacity="0.003922" stroke="transparent" stroke-width="2" points="174,-52 118,-52 118,-16 174,-16 174,-52"/>
<text text-anchor="start" x="138.6632" y="-30.2" font-family="Helvetica,sans-Serif" font-size="12.00" fill="#000000">S3</text>
<path fill="none" stroke="#000000" stroke-width="2" d="M130.3333,-17C130.3333,-17 161.6667,-17 161.6667,-17 167.3333,-17 173,-22.6667 173,-28.3333 173,-28.3333 173,-39.6667 173,-39.6667 173,-45.3333 167.3333,-51 161.6667,-51 161.6667,-51 130.3333,-51 130.3333,-51 124.6667,-51 119,-45.3333 119,-39.6667 119,-39.6667 119,-28.3333 119,-28.3333 119,-22.6667 124.6667,-17 130.3333,-17"/>
</g>
<!-- S0&#45;&gt;S3 -->
<g id="edge3" class="edge transition">
<title>S0&#45;&gt;S3</title>
<path fill="none" stroke="#000000" d="M176.3342,-267.2528C198.0538,-256.2837 227.5139,-238.6528 247,-216 282.8424,-174.3327 313.5795,-144.3238 284,-98 262.1974,-63.8555 216.9739,-47.6511 184.226,-40.1467"/>
<polygon fill="#000000" stroke="#000000" points="184.5848,-36.6453 174.0775,-38.0041 183.1388,-43.4944 184.5848,-36.6453"/>
<text text-anchor="start" x="293" y="-154" font-family="Helvetica,sans-Serif" font-size="10.00" fill="#000000">in == 2&#39;b11 &#160;&#160;</text>
</g>
<!-- S1&#45;&gt;S1 -->
<g id="edge7" class="edge transition">
<title>S1&#45;&gt;S1</title>
<path fill="none" stroke="#000000" d="M72.0183,-202.8247C83.888,-203.1883 94,-201.5801 94,-198 94,-195.5387 89.2205,-194.0094 82.3762,-193.4121"/>
<polygon fill="#000000" stroke="#000000" points="82.0957,-189.9049 72.0183,-193.1753 81.9356,-196.903 82.0957,-189.9049"/>
<text text-anchor="start" x="94" y="-201" font-family="Helvetica,sans-Serif" font-size="10.00" fill="#000000">not (in == 2&#39;b10) &#160;&#160;</text>
<text text-anchor="start" x="94" y="-189" font-family="Helvetica,sans-Serif" font-size="10.00" fill="#000000">not (in == 2&#39;b11) &#160;&#160;</text>
</g>
<!-- S1&#45;&gt;S2 -->
<g id="edge5" class="edge transition">
<title>S1&#45;&gt;S2</title>
<path fill="none" stroke="#000000" d="M66.6371,-179.8015C81.0312,-168.2298 99.845,-153.105 115.5418,-140.486"/>
<polygon fill="#000000" stroke="#000000" points="117.8254,-143.141 123.4262,-134.1476 113.4394,-137.6854 117.8254,-143.141"/>
<text text-anchor="start" x="101" y="-154" font-family="Helvetica,sans-Serif" font-size="10.00" fill="#000000">in == 2&#39;b10 &#160;&#160;</text>
</g>
<!-- S1&#45;&gt;S3 -->
<g id="edge6" class="edge transition">
<title>S1&#45;&gt;S3</title>
<path fill="none" stroke="#000000" d="M40.1661,-179.7146C38.9902,-172.651 38,-164.4816 38,-157 38,-157 38,-157 38,-75 38,-59.639 76.6695,-47.9812 107.7309,-41.0947"/>
<polygon fill="#000000" stroke="#000000" points="108.8463,-44.4364 117.9062,-38.9438 107.3985,-37.5877 108.8463,-44.4364"/>
<text text-anchor="start" x="38" y="-113" font-family="Helvetica,sans-Serif" font-size="10.00" fill="#000000">in == 2&#39;b11 &#160;&#160;</text>
</g>
<!-- S2&#45;&gt;S2 -->
<g id="edge9" class="edge transition">
<title>S2&#45;&gt;S2</title>
<path fill="none" stroke="#000000" d="M174.0183,-120.8247C185.888,-121.1883 196,-119.5801 196,-116 196,-113.5387 191.2205,-112.0094 184.3762,-111.4121"/>
<polygon fill="#000000" stroke="#000000" points="184.0957,-107.9049 174.0183,-111.1753 183.9356,-114.903 184.0957,-107.9049"/>
<text text-anchor="start" x="196" y="-113" font-family="Helvetica,sans-Serif" font-size="10.00" fill="#000000">not (in == 2&#39;b11) &#160;&#160;</text>
</g>
<!-- S2&#45;&gt;S3 -->
<g id="edge8" class="edge transition">
<title>S2&#45;&gt;S3</title>
<path fill="none" stroke="#000000" d="M146,-97.8015C146,-87.3976 146,-74.1215 146,-62.3768"/>
<polygon fill="#000000" stroke="#000000" points="149.5001,-62.1476 146,-52.1476 142.5001,-62.1476 149.5001,-62.1476"/>
<text text-anchor="start" x="146" y="-72" font-family="Helvetica,sans-Serif" font-size="10.00" fill="#000000">in == 2&#39;b11 &#160;&#160;</text>
</g>
<!-- S3&#45;&gt;S3 -->
<g id="edge10" class="edge transition">
<title>S3&#45;&gt;S3</title>
<path fill="none" stroke="#000000" d="M174.0183,-38.8247C185.888,-39.1883 196,-37.5801 196,-34 196,-31.5387 191.2205,-30.0094 184.3762,-29.4121"/>
<polygon fill="#000000" stroke="#000000" points="184.0957,-25.9049 174.0183,-29.1753 183.9356,-32.903 184.0957,-25.9049"/>
<text text-anchor="middle" x="197.3895" y="-31" font-family="Helvetica,sans-Serif" font-size="10.00" fill="#000000"> </text>
</g>
</g>
</svg>
