<?xml version="1.0" encoding="UTF-8" standalone="no"?>
<!DOCTYPE svg PUBLIC "-//W3C//DTD SVG 1.1//EN"
 "http://www.w3.org/Graphics/SVG/1.1/DTD/svg11.dtd">
<!-- Generated by graphviz version 2.40.1 (20161225.0304)
 -->
<!-- Title: state transitions Pages: 1 -->
<svg width="203pt" height="352pt"
 viewBox="0.00 0.00 203.00 352.00" xmlns="http://www.w3.org/2000/svg" xmlns:xlink="http://www.w3.org/1999/xlink">
<g id="graph0" class="graph" transform="scale(1 1) rotate(0) translate(4 348)">
<title>state transitions</title>
<polygon fill="#ffffff" stroke="transparent" points="-4,4 -4,-348 199,-348 199,4 -4,4"/>
<g id="clust1" class="cluster state regular">
<title>cluster_next_state</title>
<path fill="none" stroke="#000000" stroke-width="2" d="M20,-8C20,-8 175,-8 175,-8 181,-8 187,-14 187,-20 187,-20 187,-324 187,-324 187,-330 181,-336 175,-336 175,-336 20,-336 20,-336 14,-336 8,-330 8,-324 8,-324 8,-20 8,-20 8,-14 14,-8 20,-8"/>
<text text-anchor="start" x="70.3208" y="-317.2" font-family="Helvetica,sans-Serif" font-size="12.00" fill="#000000">next_state</text>
</g>
<!-- next_state -->
<!-- S0 -->
<g id="node2" class="node state regular">
<title>S0</title>
<polygon fill="#ffffff" fill-opacity="0.003922" stroke="transparent" stroke-width="2" points="144,-298 88,-298 88,-262 144,-262 144,-298"/>
<text text-anchor="start" x="108.6632" y="-276.2" font-family="Helvetica,sans-Serif" font-size="12.00" fill="#000000">S0</text>
<path fill="none" stroke="#000000" stroke-width="2" d="M100.3333,-263C100.3333,-263 131.6667,-263 131.6667,-263 137.3333,-263 143,-268.6667 143,-274.3333 143,-274.3333 143,-285.6667 143,-285.6667 143,-291.3333 137.3333,-297 131.6667,-297 131.6667,-297 100.3333,-297 100.3333,-297 94.6667,-297 89,-291.3333 89,-285.6667 89,-285.6667 89,-274.3333 89,-274.3333 89,-268.6667 94.6667,-263 100.3333,-263"/>
</g>
<!-- S1 -->
<g id="node3" class="node state regular">
<title>S1</title>
<polygon fill="#ffffff" fill-opacity="0.003922" stroke="transparent" stroke-width="2" points="72,-216 16,-216 16,-180 72,-180 72,-216"/>
<text text-anchor="start" x="36.6632" y="-194.2" font-family="Helvetica,sans-Serif" font-size="12.00" fill="#000000">S1</text>
<path fill="none" stroke="#000000" stroke-width="2" d="M28.3333,-181C28.3333,-181 59.6667,-181 59.6667,-181 65.3333,-181 71,-186.6667 71,-192.3333 71,-192.3333 71,-203.6667 71,-203.6667 71,-209.3333 65.3333,-215 59.6667,-215 59.6667,-215 28.3333,-215 28.3333,-215 22.6667,-215 17,-209.3333 17,-203.6667 17,-203.6667 17,-192.3333 17,-192.3333 17,-186.6667 22.6667,-181 28.3333,-181"/>
</g>
<!-- S0&#45;&gt;S1 -->
<g id="edge1" class="edge transition">
<title>S0&#45;&gt;S1</title>
<path fill="none" stroke="#000000" d="M100.0209,-261.8015C90.2332,-250.6545 77.5505,-236.2103 66.7284,-223.8851"/>
<polygon fill="#000000" stroke="#000000" points="69.1626,-221.3527 59.9345,-216.1476 63.9025,-225.9713 69.1626,-221.3527"/>
<text text-anchor="middle" x="85.3895" y="-236" font-family="Helvetica,sans-Serif" font-size="10.00" fill="#000000"> </text>
</g>
<!-- S2 -->
<g id="node4" class="node state regular">
<title>S2</title>
<polygon fill="#ffffff" fill-opacity="0.003922" stroke="transparent" stroke-width="2" points="144,-134 88,-134 88,-98 144,-98 144,-134"/>
<text text-anchor="start" x="108.6632" y="-112.2" font-family="Helvetica,sans-Serif" font-size="12.00" fill="#000000">S2</text>
<path fill="none" stroke="#000000" stroke-width="2" d="M100.3333,-99C100.3333,-99 131.6667,-99 131.6667,-99 137.3333,-99 143,-104.6667 143,-110.3333 143,-110.3333 143,-121.6667 143,-121.6667 143,-127.3333 137.3333,-133 131.6667,-133 131.6667,-133 100.3333,-133 100.3333,-133 94.6667,-133 89,-127.3333 89,-121.6667 89,-121.6667 89,-110.3333 89,-110.3333 89,-104.6667 94.6667,-99 100.3333,-99"/>
</g>
<!-- S1&#45;&gt;S2 -->
<g id="edge2" class="edge transition">
<title>S1&#45;&gt;S2</title>
<path fill="none" stroke="#000000" d="M59.9791,-179.8015C69.7668,-168.6545 82.4495,-154.2103 93.2716,-141.8851"/>
<polygon fill="#000000" stroke="#000000" points="96.0975,-143.9713 100.0655,-134.1476 90.8374,-139.3527 96.0975,-143.9713"/>
<text text-anchor="middle" x="85.3895" y="-154" font-family="Helvetica,sans-Serif" font-size="10.00" fill="#000000"> </text>
</g>
<!-- S2&#45;&gt;S0 -->
<g id="edge4" class="edge transition">
<title>S2&#45;&gt;S0</title>
<path fill="none" stroke="#000000" d="M116,-134.3688C116,-141.4426 116,-149.5972 116,-157 116,-239 116,-239 116,-239 116,-243.0484 116,-247.3216 116,-251.52"/>
<polygon fill="#000000" stroke="#000000" points="112.5001,-251.6312 116,-261.6312 119.5001,-251.6313 112.5001,-251.6312"/>
<text text-anchor="start" x="116" y="-195" font-family="Helvetica,sans-Serif" font-size="10.00" fill="#000000">not (in) &#160;&#160;</text>
</g>
<!-- S3 -->
<g id="node5" class="node state regular">
<title>S3</title>
<polygon fill="#ffffff" fill-opacity="0.003922" stroke="transparent" stroke-width="2" points="162,-52 106,-52 106,-16 162,-16 162,-52"/>
<text text-anchor="start" x="126.6632" y="-30.2" font-family="Helvetica,sans-Serif" font-size="12.00" fill="#000000">S3</text>
<path fill="none" stroke="#000000" stroke-width="2" d="M118.3333,-17C118.3333,-17 149.6667,-17 149.6667,-17 155.3333,-17 161,-22.6667 161,-28.3333 161,-28.3333 161,-39.6667 161,-39.6667 161,-45.3333 155.3333,-51 149.6667,-51 149.6667,-51 118.3333,-51 118.3333,-51 112.6667,-51 107,-45.3333 107,-39.6667 107,-39.6667 107,-28.3333 107,-28.3333 107,-22.6667 112.6667,-17 118.3333,-17"/>
</g>
<!-- S2&#45;&gt;S3 -->
<g id="edge3" class="edge transition">
<title>S2&#45;&gt;S3</title>
<path fill="none" stroke="#000000" d="M119.9948,-97.8015C122.3019,-87.2915 125.2524,-73.8503 127.8498,-62.0177"/>
<polygon fill="#000000" stroke="#000000" points="131.2908,-62.6655 130.0164,-52.1476 124.4536,-61.1646 131.2908,-62.6655"/>
<text text-anchor="start" x="126" y="-72" font-family="Helvetica,sans-Serif" font-size="10.00" fill="#000000">in &#160;&#160;</text>
</g>
<!-- S3&#45;&gt;S0 -->
<g id="edge5" class="edge transition">
<title>S3&#45;&gt;S0</title>
<path fill="none" stroke="#000000" d="M162.2476,-50.1633C169.8451,-56.665 176,-65.0138 176,-75 176,-142.5 176,-142.5 176,-142.5 176,-175.9317 173.2745,-185.3167 160,-216 154.2404,-229.313 145.5515,-242.7388 137.4123,-253.8317"/>
<polygon fill="#000000" stroke="#000000" points="134.6083,-251.7369 131.353,-261.8193 140.1852,-255.9676 134.6083,-251.7369"/>
<text text-anchor="middle" x="176.3895" y="-154" font-family="Helvetica,sans-Serif" font-size="10.00" fill="#000000"> </text>
</g>
</g>
</svg>
